<svg height='300px' width='300px'  fill="#000000" xmlns="http://www.w3.org/2000/svg" xmlns:xlink="http://www.w3.org/1999/xlink" version="1.0" x="0px" y="0px" viewBox="0 0 74 74" style="enable-background:new 0 0 74 74;" xml:space="preserve"><g><path d="M36.25,38.59c-0.36,0-0.66,0.29-0.66,0.66v11.85c0,0.36,0.29,0.66,0.66,0.66s0.66-0.29,0.66-0.66V39.24   C36.91,38.88,36.61,38.59,36.25,38.59z"></path><path d="M31.92,38.59c-0.36,0-0.66,0.29-0.66,0.66v11.85c0,0.36,0.29,0.66,0.66,0.66s0.66-0.29,0.66-0.66V39.24   C32.58,38.88,32.29,38.59,31.92,38.59z"></path><path d="M68.34,18.62h-2.55c-2.48,0-4.49,2.02-4.49,4.49v4.25H44.69c-0.88,0-1.73,0.31-2.39,0.88l-4.77,4.04   c-0.42,0.36-0.96,0.57-1.51,0.57H31.6c-0.56,0-1.11-0.2-1.53-0.57l-4.76-4.04c-0.66-0.57-1.51-0.88-2.38-0.88H8.68   C6.65,27.36,5,29.01,5,31.03v24.21c0,2.03,1.65,3.68,3.68,3.68h5.48v4.51c0,0.36,0.29,0.66,0.66,0.66h28.86   c0.36,0,0.66-0.29,0.66-0.66v-5.15c0-0.01,0-0.01,0-0.02v-2.27c0-0.46,0.38-0.84,0.84-0.84h8.15c0.46,0,0.84,0.38,0.84,0.84v0.77   c0,1.2,0.97,2.17,2.17,2.17h4.97v1.82c0,0.36,0.29,0.66,0.66,0.66s0.66-0.29,0.66-0.66v-5.92h2.53c0.36,0,0.66-0.29,0.66-0.66   s-0.29-0.66-0.66-0.66h-2.53v-0.81h1.88c0.72,0,1.31-0.59,1.31-1.31v-5.17c0-0.72-0.59-1.31-1.31-1.31h-1.88v-0.81h2.53   c0.36,0,0.66-0.29,0.66-0.66s-0.29-0.66-0.66-0.66h-2.53v-1.72h2.53c0.36,0,0.66-0.29,0.66-0.66c0-0.36-0.29-0.66-0.66-0.66h-2.53   v-0.81h1.88c0.72,0,1.31-0.59,1.31-1.31v-5.17c0-0.72-0.59-1.31-1.31-1.31h-1.88v-0.81h2.53c0.36,0,0.66-0.29,0.66-0.66   s-0.29-0.66-0.66-0.66h-2.53v-5.9c0-1.75,1.42-3.17,3.17-3.17h2.55c0.36,0,0.66-0.29,0.66-0.66S68.71,18.62,68.34,18.62z    M17.93,62.77h-2.45v-3.85h2.45V62.77z M21.48,62.77h-2.24v-3.85h2.24V62.77z M25.03,62.77H22.8v-3.85h2.24V62.77z M28.59,62.77   h-2.24v-3.85h2.24V62.77z M32.14,62.77h-2.24v-3.85h2.24V62.77z M35.7,62.77h-2.24v-3.85h2.24V62.77z M39.25,62.77h-2.24v-3.85   h2.24V62.77z M43.02,62.77h-2.45v-3.85h2.45V62.77z M61.3,57.6h-4.97c-0.47,0-0.85-0.38-0.85-0.85v-0.77   c0-1.19-0.97-2.16-2.15-2.16h-8.15c-1.19,0-2.15,0.97-2.15,2.16v1.62H8.68c-1.3,0-2.36-1.06-2.36-2.36V31.03   c0-1.3,1.06-2.36,2.36-2.36h14.25c0.55,0,1.09,0.2,1.52,0.57l4.76,4.04c0.66,0.57,1.51,0.88,2.39,0.88h4.42   c0.87,0,1.71-0.31,2.37-0.88l4.77-4.04c0.42-0.36,0.97-0.57,1.53-0.57H61.3V57.6z M62.64,46.21l1.85-0.01l0.01,5.16h-1.86V46.21z    M62.64,32.45l1.85-0.01l0.01,5.16h-1.86V32.45z"></path><path d="M31.54,18.97l1.22,0.24l-1.21,6.23c-0.09,0.45,0.13,0.89,0.55,1.08c0.14,0.06,0.28,0.1,0.42,0.1   c0.29,0,0.56-0.13,0.76-0.36l6.58-8.03c0.22-0.27,0.28-0.63,0.16-0.96c-0.12-0.33-0.4-0.57-0.74-0.64l-1.22-0.24l2.96-3.94   c0.21-0.27,0.26-0.63,0.13-0.95s-0.4-0.55-0.73-0.61l-4.95-0.96c-0.43-0.09-0.87,0.13-1.07,0.53l-3.56,7.1   c-0.14,0.28-0.14,0.6,0,0.88S31.23,18.91,31.54,18.97z M35.47,11.27l4.18,0.81l-2.96,3.94c-0.21,0.27-0.26,0.63-0.13,0.95   c0.12,0.32,0.4,0.55,0.73,0.61l1.19,0.23l-5.4,6.58l1.02-5.27c0.05-0.26,0-0.52-0.15-0.74c-0.15-0.22-0.37-0.37-0.63-0.42   l-1.12-0.22L35.47,11.27z"></path><path d="M21.96,18.88l0.8-0.19l1.11,4.67c0.1,0.41,0.46,0.7,0.88,0.7c0.01,0,0.01,0,0.01,0c0.41,0,0.78-0.28,0.88-0.68l2.1-7.81   c0.09-0.32,0-0.64-0.23-0.88c-0.23-0.23-0.55-0.33-0.87-0.25l-0.71,0.17l0.79-3.52c0.07-0.31-0.02-0.63-0.25-0.85   c-0.23-0.22-0.55-0.31-0.85-0.24l-3.83,0.9c-0.39,0.1-0.68,0.45-0.7,0.85l-0.26,6.18c-0.01,0.29,0.11,0.56,0.33,0.74   C21.39,18.88,21.68,18.95,21.96,18.88z M22.4,12.13l2.9-0.68l-0.79,3.52c-0.07,0.31,0.02,0.63,0.25,0.85   c0.23,0.22,0.54,0.32,0.86,0.24l0.68-0.16l-1.51,5.61l-0.83-3.51c-0.1-0.42-0.48-0.7-0.89-0.7c-0.07,0-0.14,0.01-0.21,0.02   l-0.68,0.16L22.4,12.13z"></path><path d="M42.84,22.77c0.16,0,0.31-0.04,0.46-0.12l7.01-4.04c0.28-0.16,0.45-0.45,0.46-0.78c0.01-0.33-0.16-0.62-0.43-0.79   l-0.62-0.38l3.05-1.94c0.27-0.17,0.42-0.46,0.42-0.78c0-0.32-0.16-0.6-0.43-0.77l-3.35-2.06c-0.34-0.21-0.8-0.17-1.1,0.11   l-4.55,4.19c-0.21,0.19-0.32,0.47-0.29,0.76c0.03,0.29,0.18,0.54,0.43,0.69l0.7,0.43l-2.52,4.09c-0.22,0.36-0.17,0.81,0.12,1.11   C42.36,22.68,42.59,22.77,42.84,22.77z M45.91,17.64c0.26-0.43,0.13-0.99-0.3-1.26l-0.59-0.36l3.94-3.62l2.53,1.56l-3.04,1.93   c-0.27,0.17-0.43,0.46-0.43,0.78c0,0.32,0.16,0.61,0.43,0.77l0.6,0.37l-5.04,2.9L45.91,17.64z"></path><path d="M38.47,42.35c0,5.72,4.65,10.37,10.37,10.37c5.73,0,10.39-4.65,10.39-10.37s-4.66-10.37-10.39-10.37   C43.13,31.98,38.47,36.63,38.47,42.35z M48.85,33.3c5,0,9.07,4.06,9.07,9.05c0,4.99-4.07,9.06-9.07,9.06   c-4.99,0-9.05-4.06-9.05-9.06C39.79,37.36,43.85,33.3,48.85,33.3z"></path><path d="M40.91,44.24c0.09,0.34,0.33,0.62,0.66,0.74c0.12,0.04,0.25,0.07,0.38,0.07c0.22,0,0.45-0.07,0.63-0.2   c0.65-0.43,1.36-0.82,2.18-1.15c0.05-0.01,0.11-0.03,0.14-0.04c-0.04,0.03-0.08,0.05-0.12,0.09c-0.98,0.79-1.79,1.74-2.28,2.66   c-0.22,0.4-0.16,0.9,0.13,1.23c1.02,1.2,2.36,2.08,3.86,2.53c0.11,0.03,0.2,0.04,0.3,0.04c0.24,0,0.47-0.08,0.66-0.24   c0.29-0.22,0.44-0.59,0.41-0.95c-0.07-0.75-0.04-1.53,0.09-2.47c0-0.05,0.03-0.11,0.03-0.16c0.01,0.07,0.01,0.12,0.03,0.18   c0.21,1.28,0.62,2.43,1.19,3.32c0.22,0.32,0.57,0.49,0.88,0.49c0.08,0,0.14,0,0.21-0.03c1.56-0.25,2.98-0.98,4.14-2.07   c0.26-0.24,0.38-0.59,0.32-0.95c-0.07-0.37-0.32-0.67-0.62-0.8c-0.66-0.32-1.33-0.74-2.1-1.32c-0.04-0.04-0.08-0.08-0.12-0.12   c0.07,0.03,0.12,0.05,0.18,0.08c1.13,0.42,2.23,0.65,3.16,0.65c0.08,0,0.17,0,0.25-0.01c0.44,0,0.86-0.29,1-0.71   c0.54-1.46,0.63-3.06,0.28-4.63c-0.09-0.34-0.34-0.62-0.66-0.74c-0.34-0.12-0.73-0.08-1.03,0.13c-0.63,0.44-1.34,0.82-2.18,1.15   c-0.05,0.01-0.09,0.03-0.15,0.04c0.04-0.03,0.09-0.05,0.13-0.09c0.99-0.8,1.78-1.73,2.28-2.66c0.01-0.01,0.01-0.03,0.03-0.04   c0.17-0.37,0.11-0.84-0.16-1.19c-1.03-1.2-2.36-2.08-3.86-2.53c-0.33-0.09-0.69-0.03-0.95,0.18c-0.29,0.22-0.45,0.57-0.44,0.96   c0.07,0.73,0.04,1.52-0.08,2.45c-0.01,0.07-0.03,0.13-0.04,0.2c-0.01-0.07-0.01-0.14-0.03-0.21c-0.22-1.31-0.62-2.44-1.17-3.34   c-0.28-0.37-0.74-0.55-1.12-0.45c-1.53,0.25-2.95,0.98-4.11,2.07c-0.26,0.24-0.38,0.59-0.32,0.94c0.05,0.37,0.29,0.67,0.61,0.82   c0.69,0.33,1.37,0.76,2.08,1.32c0.04,0.04,0.08,0.07,0.12,0.11c-0.05-0.03-0.11-0.05-0.16-0.07c-1.24-0.46-2.43-0.69-3.41-0.63   c-0.46,0-0.87,0.29-1.02,0.73C40.63,41.1,40.54,42.69,40.91,44.24z M46.66,46.36c0,0.01,0,0.01,0,0.01   c-0.12,0.9-0.17,1.67-0.13,2.41c-1.07-0.38-2.02-1.03-2.78-1.89c0.42-0.74,1.08-1.49,1.87-2.14c0.45-0.36,0.86-0.65,1.25-0.9   c0.09,0.13,0.2,0.24,0.32,0.34C46.95,44.88,46.77,45.59,46.66,46.36z M53.42,42.25c0.8-0.33,1.5-0.69,2.16-1.09   c0.2,1.13,0.12,2.29-0.25,3.36c-0.82,0-1.77-0.18-2.77-0.55c-0.53-0.21-0.99-0.42-1.4-0.65c0.07-0.14,0.11-0.29,0.13-0.45   C51.97,42.75,52.67,42.54,53.42,42.25z M51.05,38.32c0.11-0.91,0.15-1.69,0.11-2.4c1.09,0.4,2.06,1.04,2.81,1.9   c-0.42,0.73-1.08,1.48-1.87,2.14c-0.42,0.34-0.84,0.63-1.25,0.87c-0.09-0.12-0.2-0.22-0.32-0.33   C50.76,39.83,50.93,39.11,51.05,38.32z M51.23,46.27c0.73,0.55,1.37,0.98,2.03,1.32c-0.87,0.74-1.9,1.24-3.05,1.46   c-0.41-0.71-0.73-1.66-0.91-2.69c-0.08-0.53-0.13-1.03-0.13-1.52c0.14-0.03,0.3-0.07,0.45-0.11   C50.08,45.28,50.62,45.78,51.23,46.27z M50.14,42.35c0,0.71-0.58,1.29-1.29,1.29c-0.71,0-1.29-0.58-1.29-1.29   c0-0.71,0.58-1.29,1.29-1.29C49.56,41.06,50.14,41.64,50.14,42.35z M44.44,37.13c0.87-0.74,1.9-1.24,3.03-1.46   c0.41,0.7,0.73,1.62,0.9,2.69c0.09,0.51,0.14,1.03,0.14,1.53c-0.14,0.01-0.3,0.05-0.45,0.11c-0.46-0.54-1-1.05-1.61-1.53   C45.77,37.92,45.11,37.49,44.44,37.13z M42.37,40.2c0.8,0,1.77,0.18,2.77,0.55c0.51,0.21,0.99,0.42,1.41,0.65   c-0.07,0.15-0.11,0.29-0.15,0.45c-0.67,0.13-1.4,0.33-2.12,0.62c-0.8,0.33-1.52,0.69-2.16,1.11C41.91,42.46,41.99,41.31,42.37,40.2   z"></path><path d="M18.76,31.98c-5.72,0-10.37,4.65-10.37,10.37s4.65,10.37,10.37,10.37c5.73,0,10.39-4.65,10.39-10.37   S24.49,31.98,18.76,31.98z M18.76,51.41c-4.99,0-9.06-4.06-9.06-9.06c0-4.99,4.06-9.05,9.06-9.05c5,0,9.07,4.06,9.07,9.05   C27.83,47.35,23.76,51.41,18.76,51.41z"></path><path d="M25.11,38.3c0-0.01,0.01-0.03,0.01-0.04c0.17-0.37,0.12-0.84-0.16-1.19c-1.02-1.2-2.35-2.08-3.85-2.53   c-0.34-0.09-0.69-0.03-0.96,0.18c-0.28,0.22-0.45,0.57-0.42,0.96c0.05,0.73,0.03,1.52-0.08,2.45c-0.01,0.07-0.04,0.13-0.05,0.2   c0-0.07-0.01-0.14-0.03-0.21c-0.21-1.31-0.62-2.44-1.17-3.34c-0.26-0.37-0.73-0.55-1.11-0.45c-1.54,0.25-2.97,0.98-4.13,2.07   c-0.25,0.24-0.37,0.59-0.32,0.95c0.07,0.36,0.3,0.66,0.62,0.8c0.69,0.33,1.37,0.76,2.08,1.32c0.04,0.04,0.07,0.07,0.12,0.11   c-0.07-0.03-0.11-0.05-0.16-0.07c-1.24-0.46-2.43-0.69-3.43-0.63c-0.45,0-0.86,0.29-1,0.73c-0.54,1.48-0.63,3.07-0.26,4.61   c0.08,0.34,0.33,0.62,0.66,0.74c0.12,0.04,0.25,0.07,0.38,0.07c0.22,0,0.45-0.07,0.63-0.2c0.65-0.43,1.36-0.82,2.18-1.15   c0.05-0.01,0.09-0.03,0.14-0.04c-0.04,0.03-0.08,0.05-0.13,0.09c-0.96,0.79-1.78,1.74-2.28,2.66c-0.21,0.4-0.16,0.9,0.14,1.23   c1.02,1.2,2.35,2.08,3.86,2.53c0.09,0.03,0.2,0.04,0.3,0.04c0.24,0,0.47-0.08,0.66-0.24c0.29-0.24,0.44-0.59,0.4-0.95   c-0.07-0.75-0.03-1.53,0.09-2.47c0.01-0.05,0.03-0.11,0.04-0.16c0.01,0.07,0.01,0.12,0.01,0.18c0.22,1.28,0.63,2.43,1.2,3.34   c0.21,0.3,0.55,0.47,0.88,0.47c0.07,0,0.14,0,0.21-0.03c1.54-0.25,2.98-0.98,4.14-2.07c0.25-0.24,0.37-0.59,0.32-0.95   c-0.07-0.37-0.32-0.67-0.63-0.8c-0.66-0.32-1.32-0.74-2.08-1.32c-0.04-0.04-0.08-0.08-0.13-0.12c0.07,0.03,0.12,0.05,0.18,0.08   c1.13,0.42,2.24,0.65,3.16,0.65c0.09,0,0.17,0,0.26-0.01c0.44,0,0.84-0.29,1-0.71c0.53-1.46,0.62-3.06,0.26-4.63   c-0.08-0.34-0.33-0.62-0.66-0.74c-0.34-0.12-0.73-0.08-1.02,0.13c-0.63,0.44-1.34,0.82-2.18,1.15c-0.05,0.01-0.09,0.03-0.15,0.04   c0.04-0.03,0.08-0.05,0.13-0.09C23.82,40.16,24.6,39.24,25.11,38.3z M14.19,42.47c-0.8,0.33-1.5,0.69-2.16,1.11   c-0.2-1.12-0.12-2.27,0.25-3.37c0.82,0,1.78,0.18,2.77,0.55c0.53,0.21,0.99,0.42,1.41,0.65c-0.05,0.15-0.11,0.29-0.13,0.45   C15.64,41.98,14.92,42.18,14.19,42.47z M16.56,46.36c0,0.01,0,0.01,0,0.01c-0.12,0.9-0.16,1.67-0.12,2.41   c-1.07-0.38-2.03-1.03-2.79-1.89c0.42-0.74,1.09-1.49,1.89-2.14c0.43-0.36,0.84-0.65,1.25-0.9c0.09,0.13,0.2,0.24,0.32,0.34   C16.85,44.88,16.68,45.59,16.56,46.36z M16.37,38.46c-0.69-0.54-1.34-0.98-2.03-1.33c0.87-0.74,1.91-1.24,3.05-1.46   c0.41,0.7,0.71,1.62,0.9,2.69c0.09,0.51,0.13,1.03,0.14,1.53c-0.16,0.01-0.3,0.05-0.45,0.11C17.52,39.45,16.98,38.94,16.37,38.46z    M17.46,42.35c0-0.71,0.59-1.29,1.31-1.29c0.71,0,1.29,0.58,1.29,1.29c0,0.71-0.58,1.29-1.29,1.29   C18.05,43.64,17.46,43.06,17.46,42.35z M23.16,47.59c-0.87,0.74-1.9,1.24-3.03,1.46c-0.41-0.71-0.74-1.66-0.91-2.69   c-0.09-0.53-0.13-1.03-0.15-1.52c0.16-0.03,0.32-0.07,0.46-0.11c0.46,0.54,1,1.04,1.61,1.53C21.87,46.82,22.52,47.24,23.16,47.59z    M23.34,42.25c0.8-0.33,1.5-0.69,2.15-1.09c0.21,1.13,0.12,2.29-0.24,3.36c-0.8,0-1.77-0.18-2.77-0.55   c-0.53-0.21-0.99-0.42-1.4-0.65c0.05-0.14,0.11-0.29,0.13-0.45C21.89,42.75,22.58,42.54,23.34,42.25z M22,39.95   c-0.44,0.34-0.84,0.63-1.25,0.87c-0.11-0.12-0.21-0.22-0.32-0.33c0.22-0.66,0.41-1.38,0.53-2.18c0.11-0.91,0.14-1.69,0.11-2.4   c1.08,0.4,2.06,1.04,2.81,1.9C23.45,38.54,22.79,39.29,22,39.95z"></path><path d="M9.83,52.33c-1.15,0-2.09,0.94-2.09,2.09c0,1.16,0.94,2.11,2.09,2.11c1.15,0,2.09-0.94,2.09-2.11   C11.92,53.27,10.98,52.33,9.83,52.33z M9.83,55.21c-0.43,0-0.77-0.35-0.77-0.79c0-0.42,0.35-0.77,0.77-0.77S10.6,54,10.6,54.42   C10.6,54.86,10.25,55.21,9.83,55.21z"></path><path d="M9.83,33.94c1.15,0,2.09-0.94,2.09-2.11c0-1.15-0.94-2.09-2.09-2.09c-1.15,0-2.09,0.94-2.09,2.09   C7.74,33,8.68,33.94,9.83,33.94z M9.83,31.06c0.43,0,0.77,0.35,0.77,0.77c0,0.43-0.35,0.79-0.77,0.79s-0.77-0.35-0.77-0.79   C9.06,31.41,9.4,31.06,9.83,31.06z"></path><path d="M58.34,52.33c-1.15,0-2.09,0.94-2.09,2.09c0,1.16,0.94,2.11,2.09,2.11c1.15,0,2.09-0.94,2.09-2.11   C60.43,53.27,59.49,52.33,58.34,52.33z M58.34,55.21c-0.43,0-0.77-0.35-0.77-0.79c0-0.42,0.35-0.77,0.77-0.77s0.77,0.35,0.77,0.77   C59.11,54.86,58.77,55.21,58.34,55.21z"></path><path d="M58.34,33.94c1.15,0,2.09-0.94,2.09-2.11c0-1.15-0.94-2.09-2.09-2.09c-1.15,0-2.09,0.94-2.09,2.09   C56.25,33,57.19,33.94,58.34,33.94z M58.34,31.06c0.43,0,0.77,0.35,0.77,0.77c0,0.43-0.35,0.79-0.77,0.79   c-0.43,0-0.77-0.35-0.77-0.79C57.57,31.41,57.92,31.06,58.34,31.06z"></path></g></svg>